# xmcd
#
# Track frame offsets: 
#        150
#        22496
#        45641
#        65656
#        87594
#        104604
#        121489
#        145649
#        169108
#        190493
#        206453
#        221470
#        240040
#        265456
#        283288
#        298341
#        314768
#
# Disc length: 4497 seconds
#
# Revision: 0
# Processed by: cddbd v1.5.2PL0 Copyright (c) Steve Scherf et al.
# Submitted via: ExactAudioCopy v0.95b4
#
DISCID=1a118f11
DTITLE=Knights, Beverley - Live im Hamburger Schlachthaus
DYEAR=2002
DGENRE=JPop
TTITLE0=Same (As It Ever Was)
TTITLE1=Sista Sista
TTITLE2=Shape Of You
TTITLE3=Damm
TTITLE4=Get Up!
TTITLE5=The Need Of You
TTITLE6=Flavour Of The Old School
TTITLE7=Gold
TTITLE8=Beautiful Contradiction
TTITLE9=Shoulda Woulda Coulda
TTITLE10=Fallen Soldier
TTITLE11=Greatest Day
TTITLE12=Bestseller Mystery
TTITLE13=Whatever's Clever
TTITLE14=Ambition (It All Comes 2 U)
TTITLE15=Made It Back 99
TTITLE16=Trouble
EXTD=
EXTT0=
EXTT1=
EXTT2=
EXTT3=
EXTT4=
EXTT5=
EXTT6=
EXTT7=
EXTT8=
EXTT9=
EXTT10=
EXTT11=
EXTT12=
EXTT13=
EXTT14=
EXTT15=
EXTT16=
PLAYORDER=
